<svg width="64" height="64" version="1.1" xmlns="http://www.w3.org/2000/svg">
 <defs>
  <linearGradient id="a" x2="0" y1="58" y2="16" gradientUnits="userSpaceOnUse">
   <stop stop-color="#3daee9" offset="0"/>
   <stop stop-color="#6cc1ef" offset="1"/>
  </linearGradient>
 </defs>
 <path d="m60 33v-23h-28l-4-4-24 1.1e-4v27z" fill="#147eb8"/>
 <path d="m22 20h-19v38h58v-42h-35z" fill="url(#a)"/>
 <g fill-opacity=".24">
  <g fill="#fff">
   <path d="m31 11h29v-1h-28l-4-4z"/>
   <path d="m3 20v1h20s3-5 3-5l-4 4h-19"/>
  </g>
  <path d="m3 57v1h58v-1h-58"/>
  <path d="m4 19v1h18l4-4-6 3h-16"/>
 </g>
 <path d="m32.02 27.18c-5.523 0-10 4.477-10 10s4.477 10 10 10c5.523-1e-5 10-4.477 10-10s-4.477-10-10-10zm0 1.25c1.166 0 2.321 0.2332 3.396 0.686v0.022c0.1902 0.0786 0.3724 0.1578 0.5542 0.2441 0.0482 0.0232 0.0962 0.0468 0.144 0.0708-0.0363 3e-3 -0.0734 0.0249-0.1099 0.0367-0.0588 0.0212-0.1412 0.1201-0.1562 0.1563v0.2344c0.0476 0.0212 0.075 0.1114 0.1562 0.1563 0.0312 0.0174 0.0507-1e-3 0.0781 0 0.0476 0.0262 0.0869 0.1089 0.0781 0.1562-0.0138 0.0688-0.11 0.0269-0.1563 0.0781 8e-3 0.0976-0.0531 0.1318-0.0781 0.1952 0.015 0.0412 0.0707 0.0293 0.0781 0.0781-9e-3 0.0538-0.0981 0.0609-0.0781 0.1171 0.09 0.07 0.1885-0.0253 0.2735-0.0367 0.1863-0.0238 0.3538 0.051 0.4688-0.039-0.015-0.0888 0.1259-0.1155 0.1171-0.1952-8e-3 -0.06-0.1125-0.0759-0.1563-0.1171-0.0238-0.0226-0.0493-0.0733-0.0781-0.1171-0.0324-0.05-0.0797-0.1088-0.1171-0.1562-0.0488-0.065-0.1563-0.1465-0.1563-0.1952 1.4e-4 -0.0562 0.0643-0.0788 0.0781-0.1562-0.015-0.0712-0.1463-1e-3 -0.1563-0.0807 1e-3 -0.0172 0.0174-0.0378 0.0292-0.0561 0.2367 0.1301 0.4672 0.271 0.6909 0.4224 0.1279 0.0976 0.247 0.2025 0.3735 0.2979-0.0838 0.015-0.1241 0.1129-0.1929 0.1952-0.0476 0.0575-0.1241 0.1263-0.1952 0.1563-0.035 0.015-0.0847-0.02-0.1171 0-0.0462 0.0312-0.0659 0.12-0.1196 0.1562-0.0388 0.0262-0.1529 0.1171-0.1929 0.1171-0.0476 1.2e-4 -0.1225-0.0503-0.1562-0.039-0.05 0.0162-0.023 0.096-0.0806 0.1171-0.11 0.0388-0.3129-0.0843-0.3515 0.0807l0.2759 0.1171 0.1563 0.2344v0.2735l-0.3515 0.1171h-0.1171l-0.625 0.0807v0.3491l-0.1196 0.2369 0.0807 0.1537v0.1196h0.2344l0.1562 0.2344-0.0781 0.1953-0.3125 0.1562-0.1562 0.2344-0.0807 0.2735-0.3125 0.3125-0.1538 0.0781-0.1196 0.1171-0.1562 0.1563-0.0367 0.1562-0.1562 0.1953-0.0807 0.1171-0.1171 0.2735 0.1171 0.1562-0.039 0.1171 0.039 0.1562-0.0781 0.2344v0.1196l-0.1171 0.1929 0.0781 0.1952-0.039 0.1171 0.2735 0.2735 0.2369 0.2759 0.1171 0.2735 0.1952 0.1171 0.1929 0.1171 0.3931 0.2344 0.2735-0.0781 0.3125-0.039 0.2344 0.0781 0.2735-0.1171 0.664-0.1562 0.3125 0.3515 0.3906-0.039 0.1952 0.2344-0.0781 0.1952-0.039 0.2735-0.039 0.1563 0.1171 0.2344 0.1952 0.1952c0.1088 0.1362 0.1935 0.295 0.2735 0.4688 0.0212 0.0462-0.02 0.0963 0 0.1562-0.0362 0.2799-0.1288 0.4715-0.3125 0.7812l-0.1952 0.3125 0.1562 0.7812v1.055l-0.1562 0.3125h0.3125l0.105 0.4516c-1.638 1.628-3.853 2.542-6.162 2.544-1.023-4e-3 -2.038-0.1875-2.998-0.542l0.0341-0.0318v-0.1562c0.0188-0.0812 0.0997-0.0727 0.1171-0.1562-0.035-0.06-0.1038-0.0469-0.1562-0.0781-0.0512-0.03-0.0843-0.0925-0.0781-0.1562 0.0876-0.0362 0.25 0.0821 0.3125-0.039 0.0312-0.0575-0.0426-0.1756 0-0.2344l0.2735-0.0807 0.2344-0.0367 0.1171-0.2369-0.0781-0.1171-0.039-0.1171-0.1171-0.1562 0.4688 0.0781 0.2344-0.3125v-0.0781l0.0781-0.0781v-0.1171l0.1562-0.1562 0.1171-0.1562 0.0806-0.1562-0.039-0.3906 0.3906-0.2735 0.1562-0.0807 0.3125-0.0781 0.2735-0.3515 0.0781-0.1952v-0.1171l0.039-0.1562 0.039-0.2735-0.039-0.1562 0.1562-0.3906 0.0781-0.1562 0.3515-0.586-0.1171-0.3515-0.1952-0.039-0.5469-0.3491-0.1171 0.039-0.2735-0.0807h-0.1953l-0.0781-0.1562-0.1563-0.039-0.2369-0.0781h-0.1171l-0.1562-0.0781-0.1171-0.1171-0.1563-0.3125v-0.1562l-0.1562-0.1562-0.3906-0.1952h-0.2735l-0.2735-0.1562-0.1562-0.1952-0.1953-0.0781-0.039-0.0781-0.039-0.1952-0.1171 0.0781-0.2735-0.1171-0.1952 0.0781-0.1953-0.0781-0.1952 0.039-0.3125-0.2344-0.2735 0.1171 0.039-0.1562-0.1171 0.039-0.1562 0.0781-0.2735 0.0781-0.3125 0.3906-0.1953-0.1171-0.4687 0.039-0.3515-0.3515 0.0781-0.3125 0.0807-0.2344-0.2369-0.1952h-0.5469l0.0806-0.1562v-0.0781l0.1171-0.1562 0.039-0.1562 0.0781-0.1562-0.0781-0.1562-0.3125 0.039-0.3125 0.3906c-0.0626 0.02-0.1681 0.0267-0.2369 0.039-0.0588 1e-3 -0.1341 0.0403-0.1952 0.039-0.0725-1.2e-4 -0.1906-0.0733-0.2344-0.1196-0.0112-1e-3 -0.0302-0.0443-0.039-0.0781 2e-3 -1e-3 -2e-3 -0.0267 0-0.039 0.052-0.252 0.1079-0.4986 0.1758-0.7398 6e-3 -0.0177 0.01-0.0361 0.0147-0.0538 0.0639-0.197 0.1347-0.3916 0.2124-0.5835 9e-3 -9e-3 0.0164-0.02 0.0269-0.0269 0.0962-0.0662 0.195-0.1487 0.3125-0.1562l0.2735 0.039 0.1562 0.0781 0.3125-0.1952h0.3125l0.2344 0.1196 0.1171-0.0806 0.1562 0.1952-0.039 0.2344 0.3515 0.1171v-0.3515l-0.039-0.1562 0.3515-0.4688 0.3906-0.2344 0.3515-0.1952v-0.3515h0.1171l0.1562-0.1563 0.1171-0.0781 0.1562-0.1562 0.1171-0.039 0.1952-0.0781 0.1952-0.039v-0.1562l0.5078-0.2735 0.3515-0.1171-0.1171 0.1562 0.2735-0.039 0.4298-0.1171 0.1952-0.2344-0.1952 0.1171-0.1171-0.039-0.1171 0.039-0.1196-0.1562 0.1952-0.2735-0.3125-0.0781 0.1562-0.1563 0.2735 0.0367 0.039 0.1196h0.1562l-0.1171-0.1196 0.4688-0.0367 0.2344-0.1196 0.1952-0.0367-0.0781 0.1171-0.3515 0.3906 0.2735 0.039 0.1171 0.039h0.1563l0.1562 0.1171 0.039-0.2344 0.039-0.1562-0.2734-0.1196 0.1171-0.1563 0.1171-0.3125-0.1171-0.1171-0.039-0.1171-0.2735-0.1953v-0.2344l-0.1563-0.3515-0.2735 0.1952-0.2344 0.039-0.1171-0.1171 0.0781-0.1953-0.1171-0.0781c-0.0612-0.0462-0.1141-0.145-0.1952-0.1562-0.0412 0-0.1162 0.0366-0.1562 0.039-0.0741 0-0.1312-0.0193-0.1929-0.039 0.085-0.0299 0.1705-0.0584 0.2564-0.0856 0.0961-0.0222 0.1921-0.0439 0.2881-0.0708 0.0274-1e-3 0.053-0.0315 0.0806-0.039 0.0388 0.0412 0.0697 0.1288 0.1171 0.1563 0.0312 0.0174 0.0783-1e-3 0.1171 0 0.1225 0.0374 0.2179 0.1057 0.3515 0.0781 0.0462-0.0812-0.0929-0.0926-0.039-0.1563 0.09 1e-3 0.1644 0.0518 0.2344 0.0807 0.0962-0.07 0.16-0.0829 0.1562-0.1953-1.2e-4 -0.0574-0.0772-0.0783-0.1171-0.1171 0.0788-0.0138 0.1544-0.0278 0.2344-0.039 7e-3 0.0212 0.0267 0.0379 0.039 0.039 0.0476 1e-3 0.2056-0.0654 0.2344-0.0805 2e-3 0 1e-3 -0.01 0-0.0196 0.3224-0.0392 0.6468-0.0603 0.9716-0.0634zm-3.122 0.5933c-0.0286 0.053-0.0567 0.0987-0.1148 0.1171 0.015 0.0812-0.1048 0.1292-0.1171 0.1929-8e-3 0.0438-2e-3 0.1175 0 0.1562 0.01 0.1654-0.0419 0.2969-0.1342 0.3931-0.1304 0.1355-0.3408 0.2011-0.5689 0.1952l-0.0807 0.31-0.2344 0.1562-0.1562-0.1562 0.039-0.1929 0.1171-0.1952-0.2344-0.039c-0.0609-1e-3 -0.1517-0.0417-0.2197-0.0732 0.2438-0.1614 0.4956-0.3105 0.7544-0.4468 0.3075-0.1536 0.635-0.296 0.9498-0.4175zm6.716 0.935-0.0781 0.039-0.1171 0.1171-0.1562 0.0807 0.039 0.1171-0.0781 0.1563 0.3906-0.039 0.1171-0.039 0.039-0.1953 0.0781-0.1171-0.2344-0.1171v-2e-3zm-9.14 0.9765v2e-3l0.0781 0.31-0.2735 0.039-0.1562-0.1171h-0.3515l0.1952-0.0781 0.5078-0.1562zm0.3125 0.3906 0.1171 0.0781 0.1171-0.0367 0.039 0.1929-0.1171-0.0367-0.2344 0.2344-0.039-0.2344-0.039-0.1196zm-0.3906 0.039h0.039l-0.1171 0.1562-0.2369 0.3125-0.1952 0.1562 0.0807-0.3125 0.1171-0.1171 0.0781-0.1563zm11.88 0.039 0.1171 0.1171 0.1171 0.039 0.1171 0.1171c0.07 0.0588 0.1748 0.11 0.2735 0.1562 0.0174 1e-3 0.0457 0.0221 0.0683 0.0341 0.0711 0.0954 0.1403 0.1923 0.2075 0.2905 8e-3 0.0492 0.0148 0.1141 0.0367 0.144 0.065 0.0888 0.1631 0.1648 0.2344 0.2735-1.2e-4 0.1038 0.0471 0.1668 0.1196 0.1953 0.0856 0.1454 0.1735 0.2911 0.2564 0.4395 0.01 0.0219 0.0196 0.0439 0.0292 0.0659 0.024 0.0647 0.0363 0.1355 0.0659 0.1978-0.0262 0-0.0531 1e-3 -0.0781 0-0.0825-0.145-0.5131-0.1732-0.5494 0.039-0.0162 0.0938 0.0619 0.2181-0.0781 0.2344-0.0888 1e-3 -0.1912-0.0909-0.3125-0.1171-0.05-1e-3 -0.1175 0.0174-0.1562 0l-0.1562-0.1952-0.2344-0.0781h-0.1171l-0.1952-0.039-0.1562-0.1171 0.1171-0.1952-0.039-0.1171v-0.1171l-0.1562-0.0807-0.1562 0.039-0.3125-0.039-0.1562 0.039h-0.3515l-0.3125 0.0807-0.1171 0.0781-0.2344 0.1171h-0.2735l-0.2344-0.1171 0.4298-0.1171 0.1562-0.1171 0.0781-0.039 0.1563-0.1562-0.039-0.1171 0.3125-0.3125 0.1952-0.0807v-0.1171l0.0781-0.0781 0.2735 0.039 0.1562-0.039 0.1196-0.0781 0.1171-0.0781 0.2735 0.2344 0.2735 0.1952 0.1562 0.0781 0.2002 0.1391 0.1122 0.1734-0.039 0.1171 0.1562-0.1563-0.039-0.1171c0.0388-0.0826 0.1844-1e-3 0.2344-0.039-9e-3 -0.0938-0.1544-0.1077-0.2344-0.1562l-0.1171-0.0781-0.1952-0.0807-0.1171-0.1537-0.1562-0.2759 0.0757-0.0732zm-11.01 0.2685h0.2342l-0.3515 0.039 0.1171-0.039zm-0.3906 0.1952h0.0781l-0.3125 0.1562-0.1562-0.039 0.1171-0.0781 0.2735-0.039zm10.86 0v0.1562l0.039-0.1562zm-0.039 0.2344-0.0781 0.039v0.2344l0.1952-0.0367-0.1171-0.2369zm0.5469 0.4688 0.3125 0.1952 0.0781-0.1952h-0.3905zm-14.6 3.36h2e-3c0.2007 3e-3 0.2612 0.271 0.4247 0.3515l0.1563 0.0367 0.1171 0.039 0.2735 0.039 0.2735 0.3125v0.1562l0.1952 0.1171 0.1952 0.1952h0.1171l0.2344 0.1562 0.0807-0.1562 0.1563-0.1171 0.1562 0.1952 0.0781 0.1953v0.4662l-0.1953 0.1953-0.0781 0.1171-0.1171 0.1196-0.039 0.1171-0.0781 0.3125 0.0781 0.1562-0.1563 0.1952 0.0781 0.2344 0.1563 0.1563 0.1562 0.2344 0.2735 0.5078 0.1953 0.2344v0.1562l0.4687 0.3515 0.1953 0.039 0.3125 0.2735 0.0781 0.3491v0.4321l0.039 0.2344v0.5859l0.039 0.1171-0.039 0.1562 0.1171 0.2735 0.039 0.3515-0.039 0.1562v0.1171l-0.039 0.1562 0.1171 0.3125v0.1171l0.039 0.0781-0.044-6e-3c-2.707-1.561-4.377-4.446-4.38-7.571 3e-3 -0.1809 0.0123-0.3616 0.0269-0.542 0.0224-0.2014 0.0347-0.1826 0.0634-0.5517 1.3e-4 -1e-3 -1.2e-4 -0.0267 0-0.039 0.0781 0 0.1839-0.113 0.271-0.1171z" fill="#1272a5"/>
</svg>
