<svg width="64" height="64" version="1.1" xmlns="http://www.w3.org/2000/svg">
 <defs>
  <linearGradient id="a" x2="0" y1="58" y2="16" gradientUnits="userSpaceOnUse">
   <stop stop-color="#3daee9" offset="0"/>
   <stop stop-color="#6cc1ef" offset="1"/>
  </linearGradient>
 </defs>
 <path d="m60 33v-23h-28l-4-4-24 1.1e-4v27z" fill="#147eb8"/>
 <path d="m22 20h-19v38h58v-42h-35z" fill="url(#a)"/>
 <g fill-opacity=".24">
  <g fill="#fff">
   <path d="m31 11h29v-1h-28l-4-4z"/>
   <path d="m3 20v1h20s3-5 3-5l-4 4h-19"/>
  </g>
   <path d="m3 57v1h58v-1h-58"/>
   <path d="m4 19v1h18l4-4-6 3h-16"/>
 </g>
 <g fill="#1272a5">
  <path d="m25 30c-2.21 0-4 2.685-4 5.999v6.998c0 1.78 2.154 2.673 3.414 1.413l2.414-2.413h0.676a2.5 2.5 0 0 0 1.996 1 2.5 2.5 0 0 0 1.992-1h0.906a2.5 2.5 0 0 0 1.997 1 2.5 2.5 0 0 0 1.992-1h0.785l2.414 2.413c1.26 1.26 3.414 0.367 3.414-1.413v-6.998c0-3.314-1.79-5.999-4-5.999zm0 1h14c1.657 0 3 2.238 3 4.999v6.998c0 0.89-1.077 1.336-1.707 0.707l-2.707-2.707h-1.779a1.5 1.5 0 0 1-1.412 1 1.5 1.5 0 0 1-1.395-0.955v-0.045h-2.088a1.5 1.5 0 0 1-1.412 1 1.5 1.5 0 0 1-1.412-1h-1.674l-2.707 2.707c-0.63 0.63-1.707 0.184-1.707-0.707v-6.998c0-2.76 1.343-5 3-5z"/>
  <path d="m25 32v2h-2v2h2v2h2v-2h2v-2h-2v-2zm11 7.5a1.5 1.5 0 0 1-1.5 1.5 1.5 1.5 0 0 1-1.5-1.5 1.5 1.5 0 0 1 1.5-1.5 1.5 1.5 0 0 1 1.5 1.5zm-5 0a1.5 1.5 0 0 1-1.5 1.5 1.5 1.5 0 0 1-1.5-1.5 1.5 1.5 0 0 1 1.5-1.5 1.5 1.5 0 0 1 1.5 1.5zm8-2.5a1 1 0 0 1-1 1 1 1 0 0 1-1-1 1 1 0 0 1 1-1 1 1 0 0 1 1 1zm2-2a1 1 0 0 1-1 1 1 1 0 0 1-1-1 1 1 0 0 1 1-1 1 1 0 0 1 1 1zm-2-2a1 1 0 0 1-1 1 1 1 0 0 1-1-1 1 1 0 0 1 1-1 1 1 0 0 1 1 1zm-2 2a1 1 0 0 1-1 1 1 1 0 0 1-1-1 1 1 0 0 1 1-1 1 1 0 0 1 1 1z"/>
 </g>
</svg>
