<svg width="64" height="64" version="1.1" xmlns="http://www.w3.org/2000/svg">
 <defs>
  <linearGradient id="a" x2="0" y1="58" y2="16" gradientUnits="userSpaceOnUse">
   <stop stop-color="#3daee9" offset="0"/>
   <stop stop-color="#6cc1ef" offset="1"/>
  </linearGradient>
 </defs>
 <path d="m60 33v-23h-28l-4-4-24 1.1e-4v27z" fill="#147eb8"/>
 <path d="m22 20h-19v38h58v-42h-35z" fill="url(#a)"/>
 <g fill-opacity=".24">
  <g fill="#fff">
   <path d="m31 11h29v-1h-28l-4-4z"/>
   <path d="m3 20v1h20s3-5 3-5l-4 4h-19"/>
  </g>
   <path d="m3 57v1h58v-1h-58"/>
   <path d="m4 19v1h18l4-4-6 3h-16"/>
 </g>
 <path d="m32 28c-3.866 0-7 3.134-7 7 0.0026 0.3355 0.02941 0.6703 0.08 1.002-0.02669-8.65e-4 -0.05338-0.001516-0.08-0.001953-2.761 0-5 2.239-5 5s2.239 5 5 5h13c3.314 0 6-2.686 6-6-0.0026-2.952-2.152-5.464-5.068-5.922-0.4618-3.476-3.425-6.074-6.932-6.078zm0 1c0.2002-2.46e-4 0.4004 0.0095 0.5996 0.0293 1 0.1011 1.958 0.4517 2.621 0.9051 0.6632 0.4535 1.105 0.8649 1.606 1.498 0.5012 0.6329 0.9191 1.573 1.087 2.572 0.04813 0.2854 0.07555 0.5739 0.08203 0.8633 2.828 0.1358 5.048 2.352 5.053 5.043-5.55e-4 0.6622-0.1379 1.318-0.4043 1.93l-0.01563 0.04102c-0.7651 1.884-2.595 3.118-4.629 3.119h-13c-2.209 0-4-1.791-4-4-1.2e-4 -0.1331 0.0064-0.266 0.01953-0.3984 0.2047-2.045 1.925-3.602 3.98-3.602 0.4985-0.01233 1.008 0.1556 1.455 0.2774-0.1518-0.3698-0.3502-0.7179-0.4447-1.58s-8.16e-4 -1.098 0.01894-1.297c0.308-3.066 2.889-5.401 5.971-5.4z" fill="#1272a5"/>
</svg>
