<svg width="64" height="64" version="1.1" xmlns="http://www.w3.org/2000/svg">
 <defs>
  <linearGradient id="a" x2="0" y1="58" y2="16" gradientUnits="userSpaceOnUse">
   <stop stop-color="#3e3e3e" offset="0"/>
   <stop stop-color="#494949" offset="1"/>
  </linearGradient>
 </defs>
 <path d="m60 33v-23h-28l-4-4-24 1.1e-4v27z" fill="#2d2d2d" stroke="#444" stroke-width=".6"/>
 <path d="m22 20h-19v38h58v-42h-35z" fill="url(#a)"/>
 <g fill="#5f5f5f" opacity=".6">
  <rect x="6" y="24" width="4" height="4"/>
  <rect x="14" y="24" width="4" height="4"/>
  <rect x="22" y="24" width="4" height="4"/>
  <rect x="30" y="24" width="4" height="4"/>
  <rect x="38" y="24" width="4" height="4"/>
  <rect x="46" y="24" width="4" height="4"/>
  <rect x="54" y="24" width="4" height="4"/>
  <rect x="3" y="20" width="3" height="4"/>
  <rect x="10" y="20" width="4" height="4"/>
  <rect x="18" y="20" width="4" height="4"/>
  <rect x="26" y="20" width="4" height="4"/>
  <rect x="34" y="20" width="4" height="4"/>
  <rect x="42" y="20" width="4" height="4"/>
  <rect x="50" y="20" width="4" height="4"/>
  <rect x="58" y="20" width="3" height="4"/>
  <path d="m22 20 4-4v-1.3e-4 4z"/>
  <rect x="30" y="16" width="4" height="4"/>
  <rect x="38" y="16" width="4" height="4"/>
  <rect x="46" y="16" width="4" height="4"/>
  <rect x="54" y="16" width="4" height="4"/>
 </g>
 <path d="m32 28c-2.77 0-5 2.23-5 5h1c0-2.424 1.923-4 4-4 2.078 0 4 1.576 4 4v4h-12v9h16v-9h-3v-4c0-2.77-2.23-5-5-5zm-7 10h14v7h-14z" fill="#7a7a7a"/>
 <g fill-opacity=".24">
  <g fill="#fff">
   <path d="m31 11h29v-1h-28l-4-4z"/>
   <path d="m3 20v1h20s3-5 3-5l-4 4h-19"/>
  </g>
  <path d="m3 57v1h58v-1h-58"/>
  <path d="m4 19v1h18l4-4-6 3h-16"/>
 </g>
</svg>
