<svg version="1.1" viewBox="0 0 64 64" xmlns="http://www.w3.org/2000/svg" xmlns:xlink="http://www.w3.org/1999/xlink">
 <defs>
  <linearGradient id="r" x1="394.6" x2="399.6" y1="517.8" y2="522.8" gradientTransform="matrix(2 0 0 2 -769.1 -1032)" gradientUnits="userSpaceOnUse">
   <stop stop-color="#d4ba94" offset="0"/>
   <stop stop-color="#bb9d71" offset="1"/>
  </linearGradient>
  <linearGradient id="s" x1="390.6" x2="410.6" y1="521.8" y2="545.8" gradientTransform="matrix(2 0 0 1.833 -769.1 -942.6)" gradientUnits="userSpaceOnUse">
   <stop stop-color="#bdc3c7" offset="0"/>
   <stop stop-color="#8a9696" offset="1"/>
  </linearGradient>
  <linearGradient id="h" x1="391.6" x2="394.6" y1="534.8" y2="534.8" gradientTransform="matrix(1.333,0,0,1.8,-498.1,-926.6)" gradientUnits="userSpaceOnUse" xlink:href="#a"/>
  <linearGradient id="j" x1="391.6" x2="394.6" y1="534.8" y2="534.8" gradientTransform="matrix(1.333,0,0,1.8,-508.1,-926.6)" gradientUnits="userSpaceOnUse" xlink:href="#a"/>
  <linearGradient id="k" x1="391.6" x2="394.6" y1="534.8" y2="534.8" gradientTransform="matrix(1.333,0,0,1.8,-486.1,-926.6)" gradientUnits="userSpaceOnUse" xlink:href="#a"/>
  <linearGradient id="q" x1="391.6" x2="394.6" y1="534.8" y2="534.8" gradientTransform="matrix(1.333,0,0,1.8,-476.1,-926.6)" gradientUnits="userSpaceOnUse" xlink:href="#a"/>
  <radialGradient id="l" cx="20.57" cy="8.5" r="4" gradientTransform="matrix(.6291 7.457 -1.495 .1261 51.11 -120.1)" gradientUnits="userSpaceOnUse">
   <stop stop-color="#4f575f" stop-opacity=".251" offset="0"/>
   <stop stop-color="#8a939a" offset="1"/>
  </radialGradient>
  <radialGradient id="m" cx="16" cy="8.5" r="4" gradientTransform="matrix(.2942 3.488 -2.989 .2522 76.03 -23.92)" gradientUnits="userSpaceOnUse">
   <stop stop-color="#4f575f" stop-opacity=".25" offset="0"/>
   <stop stop-color="#9da5ab" offset="1"/>
  </radialGradient>
  <linearGradient id="d" x1="395.6" x2="395.6" y1="520.8" y2="516.8" gradientTransform="matrix(.1681 1.993 -1.993 .1681 1026 -851.8)" gradientUnits="userSpaceOnUse">
   <stop stop-color="#afb0b3" offset="0"/>
   <stop stop-color="#bdc3c7" offset="1"/>
  </linearGradient>
  <linearGradient id="f" x1="412.6" x2="412.6" y1="522.8" y2="520.8" gradientTransform="matrix(.1681 1.993 -1.993 .1681 1026 -851.8)" gradientUnits="userSpaceOnUse">
   <stop stop-color="#9da5ab" offset="0"/>
   <stop stop-color="#bdc3c7" offset="1"/>
  </linearGradient>
 </defs>
 <linearGradient id="u" x1="393.6" x2="396.1" y1="521.8" y2="524.3" gradientTransform="matrix(2,0,0,2,-769.1,-1030)" gradientUnits="userSpaceOnUse" xlink:href="#b"/>
 <linearGradient id="b">
  <stop stop-color="#fcfcfc" offset="0"/>
  <stop stop-color="#eff0f1" offset="1"/>
 </linearGradient>
 <linearGradient id="e" x1="399.6" x2="400.6" y1="521.8" y2="523.8" gradientTransform="matrix(2,0,0,2,-769.1,-1030)" gradientUnits="userSpaceOnUse" xlink:href="#c"/>
 <linearGradient id="c">
  <stop stop-color="#292c2f" offset="0"/>
  <stop stop-color="#292c2f" stop-opacity="0" offset="1"/>
 </linearGradient>
 <linearGradient id="g" x1="409.6" x2="405.6" y1="521.8" y2="525.8" gradientTransform="matrix(-2,0,0,2,849.1,-1030)" gradientUnits="userSpaceOnUse" xlink:href="#b"/>
 <linearGradient id="i" x1="407.6" x2="408.6" y1="521.8" y2="523.8" gradientTransform="matrix(2,0,0,2,-769.1,-1030)" gradientUnits="userSpaceOnUse" xlink:href="#c"/>
 <linearGradient id="a">
  <stop stop-color="#4f575f" stop-opacity=".4" offset="0"/>
  <stop stop-color="#4f575f" stop-opacity=".6" offset=".5"/>
  <stop stop-color="#4f575f" stop-opacity=".4" offset="1"/>
 </linearGradient>
 <path d="m42 8-14 6-6-6-8 6v2l6 16 28-18z" fill="url(#r)"/>
 <path d="m12 14v42.17c0 1.016 0.892 1.833 2 1.833h36c1.108 0 2-0.8177 2-1.833v-42.17z" fill="url(#s)"/>
 <g>
  <path d="m26 18c1.108 0 2 0.8028 2 1.8v32.4c0 0.9972-0.892 1.8-2 1.8s-2-0.8028-2-1.8v-32.4c0-0.9972 0.892-1.8 2-1.8z" fill="url(#h)"/>
  <path d="m16 18c1.108 0 2 0.8028 2 1.8v32.4c0 0.9972-0.892 1.8-2 1.8s-2-0.8028-2-1.8v-32.4c0-0.9972 0.892-1.8 2-1.8z" fill="url(#j)"/>
  <path d="m38 18c1.108 0 2 0.8028 2 1.8v32.4c0 0.9972-0.892 1.8-2 1.8s-2-0.8028-2-1.8v-32.4c0-0.9972 0.892-1.8 2-1.8z" fill="url(#k)"/>
  <path d="m48 18c1.108 0 2 0.8028 2 1.8v32.4c0 0.9972-0.892 1.8-2 1.8s-2-0.8028-2-1.8v-32.4c0-0.9972 0.892-1.8 2-1.8z" fill="url(#q)"/>
 </g>
 <g>
  <path d="m26 30 12-8-8-8h-12z" fill="url(#e)" opacity=".2"/>
  <path d="m18 14 4 8 12-4-4-4z" fill="url(#u)"/>
  <path d="m46 14-8 8-8-8z" fill="url(#g)"/>
  <path d="m38 22 14 14v-22h-6z" fill="url(#i)" opacity=".2"/>
 </g>
 <path d="m12 55.17v1c0 1.016 0.892 1.834 2 1.834h36c1.108 0 2-0.8183 2-1.834v-1c0 1.016-0.892 1.834-2 1.834h-36c-1.108 0-2-0.8183-2-1.834z" opacity=".2"/>
 <path d="m53.48 12.11c-0.09315-1.104-1.057-1.918-2.161-1.825l-1.993 0.1681 4.035 47.83 1.993-0.1681c1.104-0.09315 1.918-1.057 1.825-2.161z" fill="url(#f)"/>
 <path d="m60.63 25.55c-0.09315-1.104-1.057-1.918-2.161-1.825l-3.986 0.3363 0.3363 3.986 1.495-0.1261c0.2624-0.02275 0.4975 0.162 0.5374 0.4223l0.9307 11.03c0.0032 0.2627-0.1974 0.483-0.4592 0.5044l-1.495 0.1261 0.3363 3.986 3.986-0.3363c1.104-0.09315 1.918-1.057 1.825-2.161z" fill="url(#d)"/>
 <path d="m57.81 27.8c-0.04658-0.552-0.5285-0.959-1.081-0.9124l-1.993 0.1681 0.08407 0.9965 1.495-0.1261c0.2624-0.02275 0.4975 0.162 0.5374 0.4223l0.9307 11.03c0.0032 0.2627-0.1974 0.483-0.4592 0.5044l-1.495 0.1261 0.08407 0.9965 1.993-0.1681c0.552-0.04658 0.959-0.5285 0.9124-1.081z" fill="url(#m)"/>
 <path d="m49.32 10.45 4.035 47.83 0.9965-0.08407-4.027-47.73z" fill="url(#l)"/>
</svg>
