<svg version="1.1" viewBox="0 0 64 64" xmlns="http://www.w3.org/2000/svg" xmlns:xlink="http://www.w3.org/1999/xlink">
 <defs>
  <radialGradient id="l" cx="20.57" cy="8.5" r="4" gradientTransform="matrix(7.484 -6.815e-8 5.44e-8 1.5 -121.9 3.25)" gradientUnits="userSpaceOnUse">
   <stop stop-color="#4f575f" stop-opacity=".251" offset="0"/>
   <stop stop-color="#8a939a" offset="1"/>
  </radialGradient>
  <linearGradient id="k" x1="390.6" x2="410.6" y1="521.8" y2="545.8" gradientTransform="matrix(2 0 0 1.833 -769.1 -942.6)" gradientUnits="userSpaceOnUse">
   <stop stop-color="#bdc3c7" offset="0"/>
   <stop stop-color="#8a9696" offset="1"/>
  </linearGradient>
  <radialGradient id="b" cx="16" cy="8.5" r="4" gradientTransform="matrix(3.5,0,0,3,-24,-13.5)" gradientUnits="userSpaceOnUse">
   <stop stop-color="#4f575f" stop-opacity=".25" offset="0"/>
   <stop stop-color="#9da5ab" offset="1"/>
  </radialGradient>
  <linearGradient id="d" x1="395.6" x2="395.6" y1="520.8" y2="516.8" gradientTransform="matrix(2,0,0,2,-769.1,-1030)" gradientUnits="userSpaceOnUse">
   <stop stop-color="#afb0b3" offset="0"/>
   <stop stop-color="#bdc3c7" offset="1"/>
  </linearGradient>
 </defs>
 <linearGradient id="a">
  <stop stop-color="#4f575f" stop-opacity=".4" offset="0"/>
  <stop stop-color="#4f575f" stop-opacity=".6" offset=".5"/>
  <stop stop-color="#4f575f" stop-opacity=".4" offset="1"/>
 </linearGradient>
 <linearGradient id="c" x1="412.6" x2="412.6" y1="522.8" y2="520.8" gradientTransform="matrix(2,0,0,2,-769.1,-1030)" gradientUnits="userSpaceOnUse">
  <stop stop-color="#9da5ab" offset="0"/>
  <stop stop-color="#bdc3c7" offset="1"/>
 </linearGradient>
 <linearGradient id="f" x1="390.6" x2="406.6" y1="521.8" y2="537.8" gradientTransform="matrix(2 0 0 1.909 -769.1 -980.2)" gradientUnits="userSpaceOnUse">
  <stop stop-color="#292c2f" offset="0"/>
  <stop stop-opacity="0" offset="1"/>
 </linearGradient>
 <linearGradient id="g" x1="391.6" x2="394.6" y1="534.8" y2="534.8" gradientTransform="matrix(1.333,0,0,1.8,-498.1,-926.6)" gradientUnits="userSpaceOnUse" xlink:href="#a"/>
 <linearGradient id="h" x1="391.6" x2="394.6" y1="534.8" y2="534.8" gradientTransform="matrix(1.333,0,0,1.8,-508.1,-926.6)" gradientUnits="userSpaceOnUse" xlink:href="#a"/>
 <linearGradient id="i" x1="391.6" x2="394.6" y1="534.8" y2="534.8" gradientTransform="matrix(1.333,0,0,1.8,-486.1,-926.6)" gradientUnits="userSpaceOnUse" xlink:href="#a"/>
 <linearGradient id="j" x1="391.6" x2="394.6" y1="534.8" y2="534.8" gradientTransform="matrix(1.333,0,0,1.8,-476.1,-926.6)" gradientUnits="userSpaceOnUse" xlink:href="#a"/>
 <path d="m12 14v42.17c0 1.016 0.892 1.833 2 1.833h36c1.108 0 2-0.8177 2-1.833v-42.17h-40" fill="url(#k)"/>
 <g>
  <path d="m10 12c-1.108 0-2 0.892-2 2v2h48v-2c0-1.108-0.892-2-2-2h-44" fill="url(#c)"/>
  <path d="m24 6c-1.108 0-2 0.892-2 2v4h4v-1.5c-6.1e-4 -0.2634 0.2032-0.4821 0.466-0.5h11.07c0.262 0.01891 0.4647 0.2373 0.464 0.5v1.5h4v-4c0-1.108-0.892-2-2-2h-16" fill="url(#d)"/>
  <path d="m26 9c-0.554 0-1 0.446-1 1v2h1v-1.5c-6.1e-4 -0.2634 0.2032-0.4821 0.466-0.5h11.07c0.262 0.01891 0.4647 0.2373 0.464 0.5v1.5h1v-2c0-0.554-0.446-1-1-1h-12" fill="url(#b)"/>
 </g>
 <g>
  <path d="m26 18c1.108 0 2 0.8028 2 1.8v32.4c0 0.9972-0.892 1.8-2 1.8s-2-0.8028-2-1.8v-32.4c0-0.9972 0.892-1.8 2-1.8" fill="url(#g)"/>
  <path d="m16 18c1.108 0 2 0.8028 2 1.8v32.4c0 0.9972-0.892 1.8-2 1.8s-2-0.8028-2-1.8v-32.4c0-0.9972 0.892-1.8 2-1.8" fill="url(#h)"/>
  <path d="m38 18c1.108 0 2 0.8028 2 1.8v32.4c0 0.9972-0.892 1.8-2 1.8s-2-0.8028-2-1.8v-32.4c0-0.9972 0.892-1.8 2-1.8" fill="url(#i)"/>
  <path d="m48 18c1.108 0 2 0.8028 2 1.8v32.4c0 0.9972-0.892 1.8-2 1.8s-2-0.8028-2-1.8v-32.4c0-0.9972 0.892-1.8 2-1.8" fill="url(#j)"/>
 </g>
 <path d="m12 16v3.818l40 38.18v-42l-40 2e-3" fill="url(#f)" opacity=".2"/>
 <path d="m8 16h48v-1h-47.89l-0.11 1" fill="url(#l)"/>
 <path d="m12 55.17v1c0 1.016 0.892 1.834 2 1.834h36c1.108 0 2-0.8183 2-1.834v-1c0 1.016-0.892 1.834-2 1.834h-36c-1.108 0-2-0.8183-2-1.834" opacity=".2"/>
</svg>
