<svg width="64" height="64" version="1.1" xmlns="http://www.w3.org/2000/svg">
 <linearGradient id="a" x2="0" y1="44" y2="7" gradientTransform="matrix(-1.4 0 0 1.4 67.84 -3.84)" gradientUnits="userSpaceOnUse">
  <stop stop-color="#42a603" offset="0"/>
  <stop stop-color="#78da06" offset="1"/>
 </linearGradient>
 <linearGradient id="b" x1="17" x2="45" y1="14" y2="42" gradientUnits="userSpaceOnUse">
  <stop stop-color="#292c2f" offset="0"/>
  <stop stop-opacity="0" offset="1"/>
 </linearGradient>
 <linearGradient id="c" x2="0" y1="37" y2="13" gradientUnits="userSpaceOnUse">
  <stop stop-color="#bcfd93" offset="0"/>
  <stop stop-color="#fafff5" offset="1"/>
 </linearGradient>
 <g fill-rule="evenodd">
  <path d="m58 6v37.95h-25.3l-14.05 14.05v-14.05h-12.65v-37.95h52" fill="url(#a)"/>
  <path d="m6 42.95v1h12.65v-1h-12.65m26.7 0s-14.05 14.05-14.05 14.05v1s14.05-14.05 14.05-14.05h25.3v-1h-25.3" fill="#368902"/>
  <path d="m43 13-15 22-7-3 11.64 11.95h25.36v-17.95l-15-13" fill="url(#b)" opacity=".2"/>
  <path d="m42.16 12.45s-14.43 22.13-14.43 22.13l-6.152-4.395-1.162 1.629 7.85 5.605 15.57-23.87-1.676-1.094" fill="url(#c)" />
 </g>
</svg>
