<svg width="64" height="64" version="1.1" xmlns="http://www.w3.org/2000/svg">
 <defs>
  <linearGradient id="a" x2="0" y1="44" y2="7" gradientTransform="matrix(-1.4,0,0,1.4,68,-4)" gradientUnits="userSpaceOnUse">
   <stop stop-color="#faae2a" offset="0"/>
   <stop stop-color="#ffc35a" offset="1"/>
  </linearGradient>
  <linearGradient id="c" x2="0" y1="30" y2="2" gradientTransform="matrix(2,0,0,-2,0,53)" gradientUnits="userSpaceOnUse">
   <stop stop-color="#fcd994" offset="0"/>
   <stop stop-color="#fff6e1" offset="1"/>
  </linearGradient>
  <linearGradient id="b" x1="17" x2="45" y1="13" y2="41" gradientUnits="userSpaceOnUse">
   <stop stop-color="#292c2f" offset="0"/>
   <stop stop-opacity="0" offset="1"/>
  </linearGradient>
 </defs>
 <g fill-rule="evenodd">
  <path d="M 58,43.95 H 32.7 L 18.65,58 V 43.95 H 6 V 6 h 52 z" fill="url(#a)"/>
  <path d="m6 42.95v1h12.65v-1h-12.65m12.65 14.05v1l14.05-14.05h25.3v-1h-25.3z" fill="#e59305"/>
  <path d="m32 13 12.7 24h-25.7l10.32 10.32 3.379-3.379h25.3v-4.945l-26-26-2e-4 -1e-3" fill="url(#b)" opacity=".2"/>
  <path d="m18.85 37h26.29l-13.14-24zm24.61-1.004h-22.92l11.46-20.92zm-12.46-5.996h2v-10h-2zm0 4h2v-2h-2z" fill="url(#c)"/>
 </g>
</svg>
