<svg width="64" height="64" version="1.1" xmlns="http://www.w3.org/2000/svg">
 <defs>
  <linearGradient id="a" x2="0" y1="44" y2="7" gradientTransform="matrix(-1.4,0,0,1.4,67.8,-3.8)" gradientUnits="userSpaceOnUse">
   <stop stop-color="#197cf1" offset="0"/>
   <stop stop-color="#20bcfa" offset="1"/>
  </linearGradient>
  <linearGradient id="c" x2="0" y1="30" y2="2" gradientTransform="matrix(2,0,0,2,-1,-5)" gradientUnits="userSpaceOnUse">
   <stop stop-color="#7cbaf8" offset="0"/>
   <stop stop-color="#f4fcff" offset="1"/>
  </linearGradient>
  <linearGradient id="b" x1="9" x2="23" y1="9" y2="23" gradientTransform="matrix(2,0,0,2,-1,-5)" gradientUnits="userSpaceOnUse">
   <stop stop-color="#292c2f" offset="0"/>
   <stop stop-opacity="0" offset="1"/>
  </linearGradient>
 </defs>
 <g fill-rule="evenodd">
 <path d="m58 6v37.95h-25.3l-14.05 14.05v-14.05h-12.65v-37.95h52" fill="url(#a)"/>
 <path d="m33 13-4 4 4 4-4 16 6.945 6.945h22.05v-5.945l-25-25h5e-3" fill="url(#b)" opacity=".2"/>
 <path d="m29 13v4h4v-4h-4m0 8v16h4v-16h-4" fill="url(#c)"/>
 <path d="m6 42.95v1h12.65v-1h-12.65m26.7 0-14.05 14.05v1l14.05-14.05h25.3v-1h-25.3" fill="#0c69cf"/>
</g>
</svg>
