<svg width="64" height="64" version="1.1" xmlns="http://www.w3.org/2000/svg">
 <defs>
  <linearGradient id="b" x1="20" x2="44" y1="13" y2="37" gradientUnits="userSpaceOnUse">
   <stop stop-color="#020303" offset="0"/>
   <stop stop-color="#424649" stop-opacity="0" offset="1"/>
  </linearGradient>
  <linearGradient id="c" x1="0" x2="0" y1="37" y2="15" gradientUnits="userSpaceOnUse">
   <stop stop-color="#ed868d" offset="0"/>
   <stop stop-color="#fbe6e8" offset="1"/>
  </linearGradient>
  <linearGradient id="a" x2="0" y1="44" y2="7" gradientTransform="matrix(-1.405 0 0 1.405 27.84 -3.8)" gradientUnits="userSpaceOnUse">
   <stop stop-color="#c61423" offset="0"/>
   <stop stop-color="#dc2b41" offset="1"/>
  </linearGradient>
 </defs>
 <g fill-rule="evenodd">
 <path d="M 58,43.95 H 32.7 L 18.65,58 V 43.95 H 6 V 6 h 52 z" fill="url(#a)"/>
 <path d="m44 14.41s-22.47 22.62-22.47 22.62l9.043 9.043 2.129-2.129h17c4.452-4.143 7.311-9.715 8.08-15.75l-13.78-13.78v-1e-4" fill="url(#b)" opacity=".2"/>
 <path d="m43.99 14.41-10.59 10.59 10.59 10.59-1.414 1.414-10.59-10.59-10.59 10.59-1.414-1.414 10.59-10.59-10.59-10.59 1.414-1.414 10.59 10.59 10.59-10.59z" fill="url(#c)"/>
 <path d="m6 43.94h12.65v-1h-12.65zm12.64 13.06v1l14.06-14.06h25.3v-1h-25.3z" fill="#aa111e"/>
</g>
</svg>
