<svg width="64" height="64" version="1.1" xmlns="http://www.w3.org/2000/svg">
 <defs>
  <linearGradient id="a" x2="0" y1="40" y2="3" gradientTransform="matrix(-1.4 0 0 1.4 67.8 0)" gradientUnits="userSpaceOnUse">
   <stop stop-color="#8e44ad" offset="0"/>
   <stop stop-color="#9b59b6" offset="1"/>
  </linearGradient>
  <linearGradient id="c" x1="9" x2="23" y1="4" y2="18" gradientTransform="matrix(2 0 0 2 -1 0)" gradientUnits="userSpaceOnUse">
   <stop stop-color="#292c2f" offset="0"/>
   <stop stop-opacity="0" offset="1"/>
  </linearGradient>
  <linearGradient id="b" x2="0" y1="38" y2="13" gradientUnits="userSpaceOnUse">
   <stop stop-color="#b985ce" offset="0"/>
   <stop stop-color="#e2cdeb" offset="1"/>
  </linearGradient>
 </defs>
 <g fill-rule="evenodd">
  <path d="m58 6v37.95h-25.3l-14.05 14.05v-14.05h-12.65v-37.95h52" fill="url(#a)"/>
  <path d="m36 15-7 1.535-5 3.535 6 6-1 3 4 4-4 4 6.945 6.945h22.05v-7.016l-22-22" fill="url(#c)" opacity=".2"/>
  <path d="m6 43v1h12.65v-1h-12.65m26.7 0-14.05 14.05v1l14.05-14.05h25.3v-1h-25.3" fill="#713e88"/>
  <path d="m31 13c-1.944 0-3.76 0.6819-5.039 1.961s-1.961 3.095-1.961 5.039h4c0-1.056 0.3181-1.74 0.7891-2.211 0.4709-0.4709 1.155-0.7891 2.211-0.7891 1.056 0 1.74 0.3181 2.211 0.7891s0.7891 1.155 0.7891 2.211c0 0.9167-0.1807 1.307-0.4219 1.652-0.2412 0.3457-0.6363 0.6722-1.225 1.084-0.5884 0.4118-1.37 0.8863-2.092 1.729s-1.262 2.118-1.262 3.535v1h4v-1c0-0.5833 0.0832-0.6821 0.2988-0.9336 0.2156-0.2515 0.686-0.5896 1.348-1.053 0.6616-0.4632 1.517-1.074 2.213-2.072s1.141-2.358 1.141-3.941c0-1.944-0.6819-3.76-1.961-5.039-1.279-1.279-3.095-1.961-5.039-1.961v0m-2 20v4h4v-4h-4" fill="url(#b)"/>
 </g>
</svg>
