<svg width="64" height="64" version="1.1" xmlns="http://www.w3.org/2000/svg" xmlns:xlink="http://www.w3.org/1999/xlink">
 <defs>
  <linearGradient id="a">
   <stop offset="0"/>
   <stop stop-opacity="0" offset="1"/>
  </linearGradient>
  <linearGradient id="b" x2="0" y1="543.8" y2="502.7" gradientTransform="matrix(.6667 0 0 .6352 -280 -295.7)" gradientUnits="userSpaceOnUse">
   <stop stop-color="#c6cdd1" offset="0"/>
   <stop stop-color="#e0e5e7" offset="1"/>
  </linearGradient>
  <linearGradient id="e" x1="13.2" x2="35.2" y1="37" y2="59" gradientUnits="userSpaceOnUse" xlink:href="#a"/>
  <linearGradient id="d" x1="21" x2="45" y1="23" y2="49" gradientUnits="userSpaceOnUse" xlink:href="#a"/>
  <linearGradient id="c" x2="0" y1="21" y2="49" gradientUnits="userSpaceOnUse">
   <stop stop-color="#555753" offset="0"/>
   <stop stop-color="#2e3436" offset="1"/>
  </linearGradient>
 </defs>
 <g fill-rule="evenodd">
 <rect x="2.441e-5" y="6" width="64" height="52" rx="0" fill="url(#b)"/>
 <rect x="2.441e-5" y="57" width="64" height="1" fill="#99a1a7"/>
 <path d="m62 15-60 40 3 3h59v-41l-2-2" fill="url(#e)" opacity=".2"/>
 <rect x="2.441e-5" y="6" width="64" height="6" fill="#566069"/>
 <rect x="2.441e-5" y="12" width="64" height="1" fill="#3daee9"/>
 <rect x="2" y="15" width="60" height="40" fill="#fff"/>
 <path d="m31.6 21.4-4.082 3.627s-0.5753 9.989-0.5753 9.989h-4v14l9 9h32v-8l-27-27-5.342-1.616" fill="url(#d)" opacity=".2"/>
 <rect x="58" y="7" width="4" height="4" rx="2" fill="#eff0f1"/>
 <path d="m33 21c-3.324 0-6 2.676-6 6v8h-4v14h20v-14h-4v-8c0-3.324-2.676-6-6-6m5 6v8h-10v-8c0-2.77 2.23-5 5-5s5 2.23 5 5zm-14 9h18v12h-18v-12" fill="url(#c)"/>
</g>
</svg>
