<svg width="64" height="64" version="1.1" xmlns="http://www.w3.org/2000/svg">
 <defs>
  <linearGradient id="b" x1="8" x2="22" y1="9" y2="23" gradientTransform="matrix(2,0,0,2,0,1)" gradientUnits="userSpaceOnUse">
   <stop stop-color="#292c2f" offset="0"/>
   <stop stop-opacity="0" offset="1"/>
  </linearGradient>
  <linearGradient id="c" x2="0" y1="17" y2="41" gradientUnits="userSpaceOnUse">
   <stop stop-color="#fcd994" offset="0"/>
   <stop stop-color="#fff6e1" offset="1"/>
  </linearGradient>
  <linearGradient id="a" x1="32" x2="32" y1="8" y2="42" gradientUnits="userSpaceOnUse">
   <stop stop-color="#faae2a" offset="0"/>
   <stop stop-color="#ffc35a" offset="1"/>
  </linearGradient>
 </defs>
 <path d="m13 35v2c0 7 10.26 16.56 19 21 8.737-4.437 19-14 19-21v-2h-38" fill="#e59305"/>
 <path d="m32 6c-6.333 3.354-12.67 4.725-19 6v23c0 7 10.26 16.56 19 21 8.737-4.437 19-14 19-21v-23c-6.333-1.275-12.67-2.646-19-6" fill="url(#a)"/>
 <path d="m31 17v20l2 2-2 2 16 17h4v-24.44l-18-16.56h-2" fill="url(#b)" fill-rule="evenodd" opacity=".2"/>
 <path d="m31 17v20h2v-20h-2m0 22v2h2v-2h-2" fill="url(#c)"/>
</svg>
