<svg width="64" height="64" version="1.1" xmlns="http://www.w3.org/2000/svg">
 <defs>
  <linearGradient id="b" x1="9" x2="23" y1="9" y2="23" gradientTransform="matrix(2,0,0,2,-1,1)" gradientUnits="userSpaceOnUse">
   <stop stop-color="#292c2f" offset="0"/>
   <stop stop-opacity="0" offset="1"/>
  </linearGradient>
  <linearGradient id="c" x2="0" y1="41" y2="17" gradientUnits="userSpaceOnUse">
   <stop stop-color="#ed868d" offset="0"/>
   <stop stop-color="#fbe6e8" offset="1"/>
  </linearGradient>
  <linearGradient id="a" x2="0" y1="58" y2="6" gradientUnits="userSpaceOnUse">
   <stop stop-color="#c61423" offset="0"/>
   <stop stop-color="#dc2b41" offset="1"/>
  </linearGradient>
 </defs>
 <path d="m13 35v2c0 7 10.26 16.56 19 21 8.737-4.437 19-14 19-21v-2h-38" fill="#aa111e" />
 <path d="m32 6c-6.333 3.354-12.67 4.725-19 6v23c0 7 10.26 16.56 19 21 8.737-4.437 19-14 19-21v-23c-6.333-1.275-12.67-2.646-19-6v0" fill="url(#a)" />
 <path d="m42.77 17.23c-7.81 8.162-14.44 16.53-22.12 22.88l17.04 17.88h13.31v-32.53l-8.234-8.234 4e-3 4e-3" fill="url(#b)" fill-rule="evenodd" opacity=".2"/>
 <path d="m42.5 17 1.414 1.414-10.59 10.59 10.59 10.59-1.414 1.414-10.59-10.59-10.59 10.59-1.414-1.414 10.59-10.59-10.59-10.59 1.414-1.414 10.59 10.59 10.59-10.59" fill="url(#c)"/>
</svg>
