<svg width="64" height="64" version="1.1" xmlns="http://www.w3.org/2000/svg">
 <defs>
  <linearGradient id="a" x1="9" x2="23" y1="9" y2="23" gradientTransform="matrix(2,0,0,2,-1,1)" gradientUnits="userSpaceOnUse">
   <stop stop-color="#292c2f" offset="0"/>
   <stop stop-opacity="0" offset="1"/>
  </linearGradient>
  <linearGradient id="c" x1="32" x2="31" y1="6" y2="57" gradientUnits="userSpaceOnUse">
   <stop stop-color="#42a603" offset="0"/>
   <stop stop-color="#78da06" offset="1"/>
  </linearGradient>
  <linearGradient id="b" x2="0" y1="42" y2="18" gradientUnits="userSpaceOnUse">
   <stop stop-color="#bcfd93" offset="0"/>
   <stop stop-color="#fafff5" offset="1"/>
  </linearGradient>
 </defs>
 <g fill-rule="evenodd">
 <path d="m13 35v2c0 7 10.26 16.56 19 21 8.737-4.437 19-14 19-21v-2h-38" fill="#368902"/>
 <path d="m32 6c-6.333 3.354-12.67 4.725-19 6v23c0 7 10.26 16.56 19 21 8.737-4.437 19-14 19-21v-23c-6.333-1.275-12.67-2.646-19-6v0" fill="url(#c)"/>
 <path d="m43 18-15 22-7-3 17.06 16.36h12.94v-28.42l-8-6.934" fill="url(#a)" opacity=".2"/>
 <path d="m42.1 17.5s-14.43 22.13-14.43 22.13l-6.152-4.395-1.162 1.629 7.85 5.605s15.57-23.87 15.57-23.87l-1.676-1.094" fill="url(#b)" />
 </g>
</svg>
